
<svg width="200" height="200" viewBox="0 0 200 200" fill="none" xmlns="http://www.w3.org/2000/svg">
  <g opacity="0.1">
    <!-- Horizontal lines -->
    <line x1="0" y1="50" x2="200" y2="50" stroke="#00F0FF" stroke-width="1"/>
    <line x1="0" y1="100" x2="200" y2="100" stroke="#00F0FF" stroke-width="1"/>
    <line x1="0" y1="150" x2="200" y2="150" stroke="#00F0FF" stroke-width="1"/>
    
    <!-- Vertical lines -->
    <line x1="50" y1="0" x2="50" y2="200" stroke="#00F0FF" stroke-width="1"/>
    <line x1="100" y1="0" x2="100" y2="200" stroke="#00F0FF" stroke-width="1"/>
    <line x1="150" y1="0" x2="150" y2="200" stroke="#00F0FF" stroke-width="1"/>
    
    <!-- Circuit nodes -->
    <circle cx="50" cy="50" r="3" fill="#00F0FF"/>
    <circle cx="150" cy="50" r="3" fill="#00F0FF"/>
    <circle cx="50" cy="150" r="3" fill="#00F0FF"/>
    <circle cx="150" cy="150" r="3" fill="#00F0FF"/>
    <circle cx="100" cy="100" r="3" fill="#00F0FF"/>
    
    <!-- Circuit paths -->
    <path d="M50 50 L50 100 L100 100" stroke="#00F0FF" stroke-width="1"/>
    <path d="M150 50 L150 100 L100 100" stroke="#00F0FF" stroke-width="1"/>
    <path d="M50 150 L50 100" stroke="#00F0FF" stroke-width="1"/>
    <path d="M150 150 L150 100" stroke="#00F0FF" stroke-width="1"/>
  </g>
</svg>
