
<svg width="100" height="100" viewBox="0 0 100 100" fill="none" xmlns="http://www.w3.org/2000/svg">
  <g opacity="0.1">
    <!-- Hexagon pattern -->
    <path d="M25 43.3L50 30L75 43.3L75 70L50 83.3L25 70L25 43.3Z" stroke="#00F0FF" stroke-width="1"/>
    <path d="M0 43.3L25 30L50 43.3L50 70L25 83.3L0 70L0 43.3Z" stroke="#00F0FF" stroke-width="1"/>
    <path d="M50 43.3L75 30L100 43.3L100 70L75 83.3L50 70L50 43.3Z" stroke="#00F0FF" stroke-width="1"/>
    <path d="M25 3.3L50 -10L75 3.3L75 30L50 43.3L25 30L25 3.3Z" stroke="#00F0FF" stroke-width="1"/>
    <path d="M25 83.3L50 70L75 83.3L75 110L50 123.3L25 110L25 83.3Z" stroke="#00F0FF" stroke-width="1"/>
  </g>
</svg>
